0
SECTION
2
HEADER
9
$ACADVER
1
AC1008
9
$UCSORG
10
0.0
20
0.0
30
0.0
9
$UCSXDIR
10
1.0
20
0.0
30
0.0
9
$TILEMODE
70
1
9
$UCSYDIR
10
0.0
20
1.0
30
0.0
9
$EXTMIN
10
-176.445755
20
-176.445755
30
-62.148525
9
$EXTMAX
10
176.445755
20
176.445755
30
70.093971
0
ENDSEC
0
SECTION
2
TABLES
0
TABLE
2
LTYPE
70
1
0
LTYPE
2
CONTINUOUS
70
64
3
Solid line
72
65
73
0
40
0.0
0
ENDTAB
0
TABLE
2
LAYER
70
1
0
LAYER
2
MCDCX_RoundTurretHousing
70
0
62
71
6
CONTINUOUS
0
ENDTAB
0
TABLE
2
STYLE
70
1
0
STYLE
2
STANDARD
70
0
40
0.0
41
1.0
50
0.0
71
0
42
0.2
3
txt
4

0
ENDTAB
0
TABLE
2
UCS
70
0
0
ENDTAB
0
ENDSEC
0
SECTION
2
ENTITIES
0
POLYLINE
8
MCDCX_RoundTurretHousing
66
1
70
64
71
109
72
214
62
71
0
VERTEX
8
MCDCX_RoundTurretHousing
10
110.758446
20
-0.000001
30
-33.616360
70
192
0
VERTEX
8
MCDCX_RoundTurretHousing
10
105.337540
20
34.226242
30
-33.616356
70
192
0
VERTEX
8
MCDCX_RoundTurretHousing
10
89.605469
20
65.102180
30
-33.616356
70
192
0
VERTEX
8
MCDCX_RoundTurretHousing
10
65.102188
20
89.605469
30
-33.616356
70
192
0
VERTEX
8
MCDCX_RoundTurretHousing
10
34.226242
20
105.337547
30
-33.616356
70
192
0
VERTEX
8
MCDCX_RoundTurretHousing
10
-0.000005
20
110.758446
30
-33.616356
70
192
0
VERTEX
8
MCDCX_RoundTurretHousing
10
-34.226250
20
105.337540
30
-33.616356
70
192
0
VERTEX
8
MCDCX_RoundTurretHousing
10
-65.102188
20
89.605461
30
-33.616356
70
192
0
VERTEX
8
MCDCX_RoundTurretHousing
10
-89.605469
20
65.102173
30
-33.616356
70
192
0
VERTEX
8
MCDCX_RoundTurretHousing
10
-105.337555
20
34.226231
30
-33.616356
70
192
0
VERTEX
8
MCDCX_RoundTurretHousing
10
-110.758453
20
-0.000011
30
-33.616360
70
192
0
VERTEX
8
MCDCX_RoundTurretHousing
10
-105.337540
20
-34.226254
30
-33.616364
70
192
0
VERTEX
8
MCDCX_RoundTurretHousing
10
-89.605461
20
-65.102196
30
-33.616364
70
192
0
VERTEX
8
MCDCX_RoundTurretHousing
10
-65.102173
20
-89.605476
30
-33.616364
70
192
0
VERTEX
8
MCDCX_RoundTurretHousing
10
-34.226231
20
-105.337547
30
-33.616364
70
192
0
VERTEX
8
MCDCX_RoundTurretHousing
10
0.000015
20
-110.758446
30
-33.616364
70
192
0
VERTEX
8
MCDCX_RoundTurretHousing
10
34.226261
20
-105.337540
30
-33.616364
70
192
0
VERTEX
8
MCDCX_RoundTurretHousing
10
65.102188
20
-89.605461
30
-33.616364
70
192
0
VERTEX
8
MCDCX_RoundTurretHousing
10
89.605476
20
-65.102165
30
-33.616364
70
192
0
VERTEX
8
MCDCX_RoundTurretHousing
10
105.337547
20
-34.226227
30
-33.616364
70
192
0
VERTEX
8
MCDCX_RoundTurretHousing
10
110.758446
20
0.000000
30
44.418163
70
192
0
VERTEX
8
MCDCX_RoundTurretHousing
10
105.337547
20
34.226242
30
44.418163
70
192
0
VERTEX
8
MCDCX_RoundTurretHousing
10
89.605469
20
65.102180
30
44.418163
70
192
0
VERTEX
8
MCDCX_RoundTurretHousing
10
65.102188
20
89.605476
30
44.418163
70
192
0
VERTEX
8
MCDCX_RoundTurretHousing
10
34.226242
20
105.337547
30
44.418163
70
192
0
VERTEX
8
MCDCX_RoundTurretHousing
10
-0.000005
20
110.758446
30
44.418175
70
192
0
VERTEX
8
MCDCX_RoundTurretHousing
10
-34.226250
20
105.337547
30
44.418163
70
192
0
VERTEX
8
MCDCX_RoundTurretHousing
10
-65.102188
20
89.605461
30
44.418163
70
192
0
VERTEX
8
MCDCX_RoundTurretHousing
10
-89.605469
20
65.102173
30
44.418163
70
192
0
VERTEX
8
MCDCX_RoundTurretHousing
10
-105.337555
20
34.226238
30
44.418163
70
192
0
VERTEX
8
MCDCX_RoundTurretHousing
10
-110.758453
20
-0.000009
30
44.418163
70
192
0
VERTEX
8
MCDCX_RoundTurretHousing
10
-105.337540
20
-34.226254
30
44.418163
70
192
0
VERTEX
8
MCDCX_RoundTurretHousing
10
-89.605461
20
-65.102196
30
44.418163
70
192
0
VERTEX
8
MCDCX_RoundTurretHousing
10
-65.102173
20
-89.605476
30
44.418163
70
192
0
VERTEX
8
MCDCX_RoundTurretHousing
10
-34.226231
20
-105.337547
30
44.418163
70
192
0
VERTEX
8
MCDCX_RoundTurretHousing
10
0.000015
20
-110.758446
30
44.418156
70
192
0
VERTEX
8
MCDCX_RoundTurretHousing
10
34.226261
20
-105.337540
30
44.418163
70
192
0
VERTEX
8
MCDCX_RoundTurretHousing
10
65.102188
20
-89.605461
30
44.418163
70
192
0
VERTEX
8
MCDCX_RoundTurretHousing
10
89.605476
20
-65.102165
30
44.418163
70
192
0
VERTEX
8
MCDCX_RoundTurretHousing
10
105.337547
20
-34.226227
30
44.418163
70
192
0
VERTEX
8
MCDCX_RoundTurretHousing
10
136.169968
20
21.749077
30
-33.616360
70
192
0
VERTEX
8
MCDCX_RoundTurretHousing
10
113.879585
20
82.738365
30
-33.616356
70
192
0
VERTEX
8
MCDCX_RoundTurretHousing
10
82.738365
20
113.879585
30
-33.616356
70
192
0
VERTEX
8
MCDCX_RoundTurretHousing
10
21.749054
20
136.169968
30
-33.616360
70
192
0
VERTEX
8
MCDCX_RoundTurretHousing
10
-21.749079
20
136.169968
30
-33.616360
70
192
0
VERTEX
8
MCDCX_RoundTurretHousing
10
-82.738365
20
113.879578
30
-33.616356
70
192
0
VERTEX
8
MCDCX_RoundTurretHousing
10
-113.879585
20
82.738358
30
-33.616356
70
192
0
VERTEX
8
MCDCX_RoundTurretHousing
10
-136.169968
20
21.749062
30
-33.616360
70
192
0
VERTEX
8
MCDCX_RoundTurretHousing
10
-136.169968
20
-21.749073
30
-33.616360
70
192
0
VERTEX
8
MCDCX_RoundTurretHousing
10
-113.879578
20
-82.738373
30
-33.616364
70
192
0
VERTEX
8
MCDCX_RoundTurretHousing
10
-82.738342
20
-113.879608
30
-33.616364
70
192
0
VERTEX
8
MCDCX_RoundTurretHousing
10
-21.749058
20
-136.169968
30
-33.616364
70
192
0
VERTEX
8
MCDCX_RoundTurretHousing
10
21.749079
20
-136.169968
30
-33.616364
70
192
0
VERTEX
8
MCDCX_RoundTurretHousing
10
82.738373
20
-113.879578
30
-33.616364
70
192
0
VERTEX
8
MCDCX_RoundTurretHousing
10
113.879608
20
-82.738342
30
-33.616364
70
192
0
VERTEX
8
MCDCX_RoundTurretHousing
10
136.169968
20
-21.749052
30
-33.616360
70
192
0
VERTEX
8
MCDCX_RoundTurretHousing
10
136.169968
20
21.749077
30
-62.148518
70
192
0
VERTEX
8
MCDCX_RoundTurretHousing
10
113.879585
20
82.738365
30
-62.148514
70
192
0
VERTEX
8
MCDCX_RoundTurretHousing
10
82.738365
20
113.879585
30
-62.148514
70
192
0
VERTEX
8
MCDCX_RoundTurretHousing
10
21.749054
20
136.169968
30
-62.148518
70
192
0
VERTEX
8
MCDCX_RoundTurretHousing
10
-21.749079
20
136.169968
30
-62.148518
70
192
0
VERTEX
8
MCDCX_RoundTurretHousing
10
-82.738365
20
113.879578
30
-62.148514
70
192
0
VERTEX
8
MCDCX_RoundTurretHousing
10
-113.879585
20
82.738358
30
-62.148514
70
192
0
VERTEX
8
MCDCX_RoundTurretHousing
10
-136.169968
20
21.749060
30
-62.148518
70
192
0
VERTEX
8
MCDCX_RoundTurretHousing
10
-136.169968
20
-21.749073
30
-62.148518
70
192
0
VERTEX
8
MCDCX_RoundTurretHousing
10
-113.879578
20
-82.738373
30
-62.148521
70
192
0
VERTEX
8
MCDCX_RoundTurretHousing
10
-82.738342
20
-113.879608
30
-62.148521
70
192
0
VERTEX
8
MCDCX_RoundTurretHousing
10
-21.749058
20
-136.169968
30
-62.148525
70
192
0
VERTEX
8
MCDCX_RoundTurretHousing
10
21.749079
20
-136.169968
30
-62.148525
70
192
0
VERTEX
8
MCDCX_RoundTurretHousing
10
82.738373
20
-113.879578
30
-62.148521
70
192
0
VERTEX
8
MCDCX_RoundTurretHousing
10
113.879608
20
-82.738342
30
-62.148521
70
192
0
VERTEX
8
MCDCX_RoundTurretHousing
10
136.169968
20
-21.749050
30
-62.148518
70
192
0
VERTEX
8
MCDCX_RoundTurretHousing
10
46.657730
20
0.000001
30
44.418163
70
192
0
VERTEX
8
MCDCX_RoundTurretHousing
10
44.374134
20
14.418032
30
44.418163
70
192
0
VERTEX
8
MCDCX_RoundTurretHousing
10
37.746895
20
27.424728
30
44.418163
70
192
0
VERTEX
8
MCDCX_RoundTurretHousing
10
27.424726
20
37.746902
30
44.418163
70
192
0
VERTEX
8
MCDCX_RoundTurretHousing
10
14.418031
20
44.374142
30
44.418163
70
192
0
VERTEX
8
MCDCX_RoundTurretHousing
10
-0.000001
20
46.657730
30
44.418163
70
192
0
VERTEX
8
MCDCX_RoundTurretHousing
10
-14.418033
20
44.374142
30
44.418163
70
192
0
VERTEX
8
MCDCX_RoundTurretHousing
10
-27.424726
20
37.746895
30
44.418163
70
192
0
VERTEX
8
MCDCX_RoundTurretHousing
10
-37.746895
20
27.424723
30
44.418163
70
192
0
VERTEX
8
MCDCX_RoundTurretHousing
10
-44.374142
20
14.418028
30
44.418163
70
192
0
VERTEX
8
MCDCX_RoundTurretHousing
10
-46.657730
20
-0.000003
30
44.418163
70
192
0
VERTEX
8
MCDCX_RoundTurretHousing
10
-44.374134
20
-14.418035
30
44.418163
70
192
0
VERTEX
8
MCDCX_RoundTurretHousing
10
-37.746891
20
-27.424728
30
44.418163
70
192
0
VERTEX
8
MCDCX_RoundTurretHousing
10
-27.424717
20
-37.746899
30
44.418163
70
192
0
VERTEX
8
MCDCX_RoundTurretHousing
10
-14.418026
20
-44.374134
30
44.418163
70
192
0
VERTEX
8
MCDCX_RoundTurretHousing
10
0.000007
20
-46.657726
30
44.418163
70
192
0
VERTEX
8
MCDCX_RoundTurretHousing
10
14.418037
20
-44.374134
30
44.418163
70
192
0
VERTEX
8
MCDCX_RoundTurretHousing
10
27.424728
20
-37.746891
30
44.418163
70
192
0
VERTEX
8
MCDCX_RoundTurretHousing
10
37.746906
20
-27.424717
30
44.418163
70
192
0
VERTEX
8
MCDCX_RoundTurretHousing
10
44.374142
20
-14.418022
30
44.418163
70
192
0
VERTEX
8
MCDCX_RoundTurretHousing
10
0.000003
20
0.000001
30
70.093971
70
192
0
VERTEX
8
MCDCX_RoundTurretHousing
10
-176.445755
20
12.819201
30
-53.083324
70
192
0
VERTEX
8
MCDCX_RoundTurretHousing
10
-176.445755
20
-12.819216
30
-53.083324
70
192
0
VERTEX
8
MCDCX_RoundTurretHousing
10
-12.819197
20
-176.445755
30
-53.083324
70
192
0
VERTEX
8
MCDCX_RoundTurretHousing
10
12.819219
20
-176.445755
30
-53.083324
70
192
0
VERTEX
8
MCDCX_RoundTurretHousing
10
-176.445755
20
12.819201
30
-62.148518
70
192
0
VERTEX
8
MCDCX_RoundTurretHousing
10
-176.445755
20
-12.819216
30
-62.148518
70
192
0
VERTEX
8
MCDCX_RoundTurretHousing
10
-12.819197
20
-176.445755
30
-62.148525
70
192
0
VERTEX
8
MCDCX_RoundTurretHousing
10
12.819219
20
-176.445755
30
-62.148525
70
192
0
VERTEX
8
MCDCX_RoundTurretHousing
10
176.445755
20
-12.819186
30
-53.083324
70
192
0
VERTEX
8
MCDCX_RoundTurretHousing
10
176.445755
20
12.819231
30
-53.083324
70
192
0
VERTEX
8
MCDCX_RoundTurretHousing
10
12.819180
20
176.445755
30
-53.083324
70
192
0
VERTEX
8
MCDCX_RoundTurretHousing
10
-12.819234
20
176.445755
30
-53.083324
70
192
0
VERTEX
8
MCDCX_RoundTurretHousing
10
176.445755
20
-12.819186
30
-62.148518
70
192
0
VERTEX
8
MCDCX_RoundTurretHousing
10
176.445755
20
12.819231
30
-62.148518
70
192
0
VERTEX
8
MCDCX_RoundTurretHousing
10
12.819180
20
176.445755
30
-62.148525
70
192
0
VERTEX
8
MCDCX_RoundTurretHousing
10
-12.819234
20
176.445755
30
-62.148525
70
192
0
VERTEX
8
MCDCX_RoundTurretHousing
10
0
20
0
30
0
70
128
71
-57
72
59
73
58
0
VERTEX
8
MCDCX_RoundTurretHousing
10
0
20
0
30
0
70
128
71
-57
72
60
73
-59
0
VERTEX
8
MCDCX_RoundTurretHousing
10
0
20
0
30
0
70
128
71
-57
72
61
73
-60
0
VERTEX
8
MCDCX_RoundTurretHousing
10
0
20
0
30
0
70
128
71
-57
72
62
73
-61
0
VERTEX
8
MCDCX_RoundTurretHousing
10
0
20
0
30
0
70
128
71
-57
72
63
73
-62
0
VERTEX
8
MCDCX_RoundTurretHousing
10
0
20
0
30
0
70
128
71
-57
72
64
73
-63
0
VERTEX
8
MCDCX_RoundTurretHousing
10
0
20
0
30
0
70
128
71
-57
72
65
73
-64
0
VERTEX
8
MCDCX_RoundTurretHousing
10
0
20
0
30
0
70
128
71
-57
72
66
73
-65
0
VERTEX
8
MCDCX_RoundTurretHousing
10
0
20
0
30
0
70
128
71
-57
72
67
73
-66
0
VERTEX
8
MCDCX_RoundTurretHousing
10
0
20
0
30
0
70
128
71
-57
72
68
73
-67
0
VERTEX
8
MCDCX_RoundTurretHousing
10
0
20
0
30
0
70
128
71
-57
72
69
73
-68
0
VERTEX
8
MCDCX_RoundTurretHousing
10
0
20
0
30
0
70
128
71
-57
72
70
73
-69
0
VERTEX
8
MCDCX_RoundTurretHousing
10
0
20
0
30
0
70
128
71
-57
72
71
73
-70
0
VERTEX
8
MCDCX_RoundTurretHousing
10
0
20
0
30
0
70
128
71
-57
72
72
73
-71
0
VERTEX
8
MCDCX_RoundTurretHousing
10
0
20
0
30
0
70
128
71
-1
72
22
73
21
0
VERTEX
8
MCDCX_RoundTurretHousing
10
0
20
0
30
0
70
128
71
1
72
2
73
-22
0
VERTEX
8
MCDCX_RoundTurretHousing
10
0
20
0
30
0
70
128
71
-2
72
23
73
22
0
VERTEX
8
MCDCX_RoundTurretHousing
10
0
20
0
30
0
70
128
71
2
72
3
73
-23
0
VERTEX
8
MCDCX_RoundTurretHousing
10
0
20
0
30
0
70
128
71
-3
72
24
73
23
0
VERTEX
8
MCDCX_RoundTurretHousing
10
0
20
0
30
0
70
128
71
3
72
4
73
-24
0
VERTEX
8
MCDCX_RoundTurretHousing
10
0
20
0
30
0
70
128
71
-4
72
25
73
24
0
VERTEX
8
MCDCX_RoundTurretHousing
10
0
20
0
30
0
70
128
71
4
72
5
73
-25
0
VERTEX
8
MCDCX_RoundTurretHousing
10
0
20
0
30
0
70
128
71
-5
72
26
73
25
0
VERTEX
8
MCDCX_RoundTurretHousing
10
0
20
0
30
0
70
128
71
5
72
6
73
-26
0
VERTEX
8
MCDCX_RoundTurretHousing
10
0
20
0
30
0
70
128
71
-6
72
27
73
26
0
VERTEX
8
MCDCX_RoundTurretHousing
10
0
20
0
30
0
70
128
71
6
72
7
73
-27
0
VERTEX
8
MCDCX_RoundTurretHousing
10
0
20
0
30
0
70
128
71
-7
72
28
73
27
0
VERTEX
8
MCDCX_RoundTurretHousing
10
0
20
0
30
0
70
128
71
7
72
8
73
-28
0
VERTEX
8
MCDCX_RoundTurretHousing
10
0
20
0
30
0
70
128
71
-8
72
29
73
28
0
VERTEX
8
MCDCX_RoundTurretHousing
10
0
20
0
30
0
70
128
71
8
72
9
73
-29
0
VERTEX
8
MCDCX_RoundTurretHousing
10
0
20
0
30
0
70
128
71
-9
72
30
73
29
0
VERTEX
8
MCDCX_RoundTurretHousing
10
0
20
0
30
0
70
128
71
9
72
10
73
-30
0
VERTEX
8
MCDCX_RoundTurretHousing
10
0
20
0
30
0
70
128
71
-10
72
31
73
30
0
VERTEX
8
MCDCX_RoundTurretHousing
10
0
20
0
30
0
70
128
71
10
72
11
73
-31
0
VERTEX
8
MCDCX_RoundTurretHousing
10
0
20
0
30
0
70
128
71
-11
72
32
73
31
0
VERTEX
8
MCDCX_RoundTurretHousing
10
0
20
0
30
0
70
128
71
11
72
12
73
-32
0
VERTEX
8
MCDCX_RoundTurretHousing
10
0
20
0
30
0
70
128
71
-12
72
33
73
32
0
VERTEX
8
MCDCX_RoundTurretHousing
10
0
20
0
30
0
70
128
71
12
72
13
73
-33
0
VERTEX
8
MCDCX_RoundTurretHousing
10
0
20
0
30
0
70
128
71
-13
72
34
73
33
0
VERTEX
8
MCDCX_RoundTurretHousing
10
0
20
0
30
0
70
128
71
13
72
14
73
-34
0
VERTEX
8
MCDCX_RoundTurretHousing
10
0
20
0
30
0
70
128
71
-14
72
35
73
34
0
VERTEX
8
MCDCX_RoundTurretHousing
10
0
20
0
30
0
70
128
71
14
72
15
73
-35
0
VERTEX
8
MCDCX_RoundTurretHousing
10
0
20
0
30
0
70
128
71
-15
72
36
73
35
0
VERTEX
8
MCDCX_RoundTurretHousing
10
0
20
0
30
0
70
128
71
15
72
16
73
-36
0
VERTEX
8
MCDCX_RoundTurretHousing
10
0
20
0
30
0
70
128
71
-16
72
37
73
36
0
VERTEX
8
MCDCX_RoundTurretHousing
10
0
20
0
30
0
70
128
71
16
72
17
73
-37
0
VERTEX
8
MCDCX_RoundTurretHousing
10
0
20
0
30
0
70
128
71
-17
72
38
73
37
0
VERTEX
8
MCDCX_RoundTurretHousing
10
0
20
0
30
0
70
128
71
17
72
18
73
-38
0
VERTEX
8
MCDCX_RoundTurretHousing
10
0
20
0
30
0
70
128
71
-18
72
39
73
38
0
VERTEX
8
MCDCX_RoundTurretHousing
10
0
20
0
30
0
70
128
71
18
72
19
73
-39
0
VERTEX
8
MCDCX_RoundTurretHousing
10
0
20
0
30
0
70
128
71
-19
72
40
73
39
0
VERTEX
8
MCDCX_RoundTurretHousing
10
0
20
0
30
0
70
128
71
19
72
20
73
-40
0
VERTEX
8
MCDCX_RoundTurretHousing
10
0
20
0
30
0
70
128
71
-20
72
21
73
40
0
VERTEX
8
MCDCX_RoundTurretHousing
10
0
20
0
30
0
70
128
71
20
72
1
73
-21
0
VERTEX
8
MCDCX_RoundTurretHousing
10
0
20
0
30
0
70
128
71
2
72
1
73
41
0
VERTEX
8
MCDCX_RoundTurretHousing
10
0
20
0
30
0
70
128
71
3
72
2
73
-41
0
VERTEX
8
MCDCX_RoundTurretHousing
10
0
20
0
30
0
70
128
71
41
72
42
73
-3
0
VERTEX
8
MCDCX_RoundTurretHousing
10
0
20
0
30
0
70
128
71
4
72
3
73
-42
0
VERTEX
8
MCDCX_RoundTurretHousing
10
0
20
0
30
0
70
128
71
42
72
43
73
-4
0
VERTEX
8
MCDCX_RoundTurretHousing
10
0
20
0
30
0
70
128
71
5
72
4
73
-43
0
VERTEX
8
MCDCX_RoundTurretHousing
10
0
20
0
30
0
70
128
71
43
72
44
73
-5
0
VERTEX
8
MCDCX_RoundTurretHousing
10
0
20
0
30
0
70
128
71
6
72
5
73
44
0
VERTEX
8
MCDCX_RoundTurretHousing
10
0
20
0
30
0
70
128
71
7
72
6
73
-44
0
VERTEX
8
MCDCX_RoundTurretHousing
10
0
20
0
30
0
70
128
71
44
72
45
73
-7
0
VERTEX
8
MCDCX_RoundTurretHousing
10
0
20
0
30
0
70
128
71
8
72
7
73
-45
0
VERTEX
8
MCDCX_RoundTurretHousing
10
0
20
0
30
0
70
128
71
45
72
46
73
-8
0
VERTEX
8
MCDCX_RoundTurretHousing
10
0
20
0
30
0
70
128
71
9
72
8
73
-46
0
VERTEX
8
MCDCX_RoundTurretHousing
10
0
20
0
30
0
70
128
71
46
72
47
73
-9
0
VERTEX
8
MCDCX_RoundTurretHousing
10
0
20
0
30
0
70
128
71
10
72
9
73
-47
0
VERTEX
8
MCDCX_RoundTurretHousing
10
0
20
0
30
0
70
128
71
47
72
48
73
-10
0
VERTEX
8
MCDCX_RoundTurretHousing
10
0
20
0
30
0
70
128
71
11
72
10
73
48
0
VERTEX
8
MCDCX_RoundTurretHousing
10
0
20
0
30
0
70
128
71
12
72
11
73
-48
0
VERTEX
8
MCDCX_RoundTurretHousing
10
0
20
0
30
0
70
128
71
48
72
49
73
-12
0
VERTEX
8
MCDCX_RoundTurretHousing
10
0
20
0
30
0
70
128
71
13
72
12
73
-49
0
VERTEX
8
MCDCX_RoundTurretHousing
10
0
20
0
30
0
70
128
71
49
72
50
73
-13
0
VERTEX
8
MCDCX_RoundTurretHousing
10
0
20
0
30
0
70
128
71
14
72
13
73
-50
0
VERTEX
8
MCDCX_RoundTurretHousing
10
0
20
0
30
0
70
128
71
50
72
51
73
-14
0
VERTEX
8
MCDCX_RoundTurretHousing
10
0
20
0
30
0
70
128
71
15
72
14
73
-51
0
VERTEX
8
MCDCX_RoundTurretHousing
10
0
20
0
30
0
70
128
71
51
72
52
73
-15
0
VERTEX
8
MCDCX_RoundTurretHousing
10
0
20
0
30
0
70
128
71
16
72
15
73
52
0
VERTEX
8
MCDCX_RoundTurretHousing
10
0
20
0
30
0
70
128
71
17
72
16
73
-52
0
VERTEX
8
MCDCX_RoundTurretHousing
10
0
20
0
30
0
70
128
71
52
72
53
73
-17
0
VERTEX
8
MCDCX_RoundTurretHousing
10
0
20
0
30
0
70
128
71
18
72
17
73
-53
0
VERTEX
8
MCDCX_RoundTurretHousing
10
0
20
0
30
0
70
128
71
53
72
54
73
-18
0
VERTEX
8
MCDCX_RoundTurretHousing
10
0
20
0
30
0
70
128
71
19
72
18
73
-54
0
VERTEX
8
MCDCX_RoundTurretHousing
10
0
20
0
30
0
70
128
71
54
72
55
73
-19
0
VERTEX
8
MCDCX_RoundTurretHousing
10
0
20
0
30
0
70
128
71
20
72
19
73
-55
0
VERTEX
8
MCDCX_RoundTurretHousing
10
0
20
0
30
0
70
128
71
55
72
56
73
-20
0
VERTEX
8
MCDCX_RoundTurretHousing
10
0
20
0
30
0
70
128
71
1
72
20
73
-56
0
VERTEX
8
MCDCX_RoundTurretHousing
10
0
20
0
30
0
70
128
71
56
72
41
73
-1
0
VERTEX
8
MCDCX_RoundTurretHousing
10
0
20
0
30
0
70
128
71
42
72
41
73
-57
0
VERTEX
8
MCDCX_RoundTurretHousing
10
0
20
0
30
0
70
128
71
57
72
58
73
-42
0
VERTEX
8
MCDCX_RoundTurretHousing
10
0
20
0
30
0
70
128
71
43
72
42
73
-58
0
VERTEX
8
MCDCX_RoundTurretHousing
10
0
20
0
30
0
70
128
71
58
72
59
73
-43
0
VERTEX
8
MCDCX_RoundTurretHousing
10
0
20
0
30
0
70
128
71
44
72
43
73
-59
0
VERTEX
8
MCDCX_RoundTurretHousing
10
0
20
0
30
0
70
128
71
59
72
60
73
-44
0
VERTEX
8
MCDCX_RoundTurretHousing
10
0
20
0
30
0
70
128
71
46
72
45
73
-61
0
VERTEX
8
MCDCX_RoundTurretHousing
10
0
20
0
30
0
70
128
71
61
72
62
73
-46
0
VERTEX
8
MCDCX_RoundTurretHousing
10
0
20
0
30
0
70
128
71
47
72
46
73
-62
0
VERTEX
8
MCDCX_RoundTurretHousing
10
0
20
0
30
0
70
128
71
62
72
63
73
-47
0
VERTEX
8
MCDCX_RoundTurretHousing
10
0
20
0
30
0
70
128
71
48
72
47
73
-63
0
VERTEX
8
MCDCX_RoundTurretHousing
10
0
20
0
30
0
70
128
71
63
72
64
73
-48
0
VERTEX
8
MCDCX_RoundTurretHousing
10
0
20
0
30
0
70
128
71
50
72
49
73
-65
0
VERTEX
8
MCDCX_RoundTurretHousing
10
0
20
0
30
0
70
128
71
65
72
66
73
-50
0
VERTEX
8
MCDCX_RoundTurretHousing
10
0
20
0
30
0
70
128
71
51
72
50
73
-66
0
VERTEX
8
MCDCX_RoundTurretHousing
10
0
20
0
30
0
70
128
71
66
72
67
73
-51
0
VERTEX
8
MCDCX_RoundTurretHousing
10
0
20
0
30
0
70
128
71
52
72
51
73
-67
0
VERTEX
8
MCDCX_RoundTurretHousing
10
0
20
0
30
0
70
128
71
67
72
68
73
-52
0
VERTEX
8
MCDCX_RoundTurretHousing
10
0
20
0
30
0
70
128
71
54
72
53
73
-69
0
VERTEX
8
MCDCX_RoundTurretHousing
10
0
20
0
30
0
70
128
71
69
72
70
73
-54
0
VERTEX
8
MCDCX_RoundTurretHousing
10
0
20
0
30
0
70
128
71
55
72
54
73
-70
0
VERTEX
8
MCDCX_RoundTurretHousing
10
0
20
0
30
0
70
128
71
70
72
71
73
-55
0
VERTEX
8
MCDCX_RoundTurretHousing
10
0
20
0
30
0
70
128
71
56
72
55
73
-71
0
VERTEX
8
MCDCX_RoundTurretHousing
10
0
20
0
30
0
70
128
71
71
72
72
73
-56
0
VERTEX
8
MCDCX_RoundTurretHousing
10
0
20
0
30
0
70
128
71
21
72
22
73
-74
0
VERTEX
8
MCDCX_RoundTurretHousing
10
0
20
0
30
0
70
128
71
74
72
73
73
-21
0
VERTEX
8
MCDCX_RoundTurretHousing
10
0
20
0
30
0
70
128
71
22
72
23
73
-75
0
VERTEX
8
MCDCX_RoundTurretHousing
10
0
20
0
30
0
70
128
71
75
72
74
73
-22
0
VERTEX
8
MCDCX_RoundTurretHousing
10
0
20
0
30
0
70
128
71
23
72
24
73
-76
0
VERTEX
8
MCDCX_RoundTurretHousing
10
0
20
0
30
0
70
128
71
76
72
75
73
-23
0
VERTEX
8
MCDCX_RoundTurretHousing
10
0
20
0
30
0
70
128
71
24
72
25
73
-77
0
VERTEX
8
MCDCX_RoundTurretHousing
10
0
20
0
30
0
70
128
71
77
72
76
73
-24
0
VERTEX
8
MCDCX_RoundTurretHousing
10
0
20
0
30
0
70
128
71
25
72
26
73
-78
0
VERTEX
8
MCDCX_RoundTurretHousing
10
0
20
0
30
0
70
128
71
78
72
77
73
-25
0
VERTEX
8
MCDCX_RoundTurretHousing
10
0
20
0
30
0
70
128
71
26
72
27
73
-79
0
VERTEX
8
MCDCX_RoundTurretHousing
10
0
20
0
30
0
70
128
71
79
72
78
73
-26
0
VERTEX
8
MCDCX_RoundTurretHousing
10
0
20
0
30
0
70
128
71
27
72
28
73
-80
0
VERTEX
8
MCDCX_RoundTurretHousing
10
0
20
0
30
0
70
128
71
80
72
79
73
-27
0
VERTEX
8
MCDCX_RoundTurretHousing
10
0
20
0
30
0
70
128
71
28
72
29
73
-81
0
VERTEX
8
MCDCX_RoundTurretHousing
10
0
20
0
30
0
70
128
71
81
72
80
73
-28
0
VERTEX
8
MCDCX_RoundTurretHousing
10
0
20
0
30
0
70
128
71
29
72
30
73
-82
0
VERTEX
8
MCDCX_RoundTurretHousing
10
0
20
0
30
0
70
128
71
82
72
81
73
-29
0
VERTEX
8
MCDCX_RoundTurretHousing
10
0
20
0
30
0
70
128
71
30
72
31
73
-83
0
VERTEX
8
MCDCX_RoundTurretHousing
10
0
20
0
30
0
70
128
71
83
72
82
73
-30
0
VERTEX
8
MCDCX_RoundTurretHousing
10
0
20
0
30
0
70
128
71
31
72
32
73
-84
0
VERTEX
8
MCDCX_RoundTurretHousing
10
0
20
0
30
0
70
128
71
84
72
83
73
-31
0
VERTEX
8
MCDCX_RoundTurretHousing
10
0
20
0
30
0
70
128
71
32
72
33
73
-85
0
VERTEX
8
MCDCX_RoundTurretHousing
10
0
20
0
30
0
70
128
71
85
72
84
73
-32
0
VERTEX
8
MCDCX_RoundTurretHousing
10
0
20
0
30
0
70
128
71
33
72
34
73
-86
0
VERTEX
8
MCDCX_RoundTurretHousing
10
0
20
0
30
0
70
128
71
86
72
85
73
-33
0
VERTEX
8
MCDCX_RoundTurretHousing
10
0
20
0
30
0
70
128
71
34
72
35
73
-87
0
VERTEX
8
MCDCX_RoundTurretHousing
10
0
20
0
30
0
70
128
71
87
72
86
73
-34
0
VERTEX
8
MCDCX_RoundTurretHousing
10
0
20
0
30
0
70
128
71
35
72
36
73
-88
0
VERTEX
8
MCDCX_RoundTurretHousing
10
0
20
0
30
0
70
128
71
88
72
87
73
-35
0
VERTEX
8
MCDCX_RoundTurretHousing
10
0
20
0
30
0
70
128
71
36
72
37
73
-89
0
VERTEX
8
MCDCX_RoundTurretHousing
10
0
20
0
30
0
70
128
71
89
72
88
73
-36
0
VERTEX
8
MCDCX_RoundTurretHousing
10
0
20
0
30
0
70
128
71
37
72
38
73
-90
0
VERTEX
8
MCDCX_RoundTurretHousing
10
0
20
0
30
0
70
128
71
90
72
89
73
-37
0
VERTEX
8
MCDCX_RoundTurretHousing
10
0
20
0
30
0
70
128
71
38
72
39
73
-91
0
VERTEX
8
MCDCX_RoundTurretHousing
10
0
20
0
30
0
70
128
71
91
72
90
73
-38
0
VERTEX
8
MCDCX_RoundTurretHousing
10
0
20
0
30
0
70
128
71
39
72
40
73
-92
0
VERTEX
8
MCDCX_RoundTurretHousing
10
0
20
0
30
0
70
128
71
92
72
91
73
-39
0
VERTEX
8
MCDCX_RoundTurretHousing
10
0
20
0
30
0
70
128
71
40
72
21
73
-73
0
VERTEX
8
MCDCX_RoundTurretHousing
10
0
20
0
30
0
70
128
71
73
72
92
73
-40
0
VERTEX
8
MCDCX_RoundTurretHousing
10
0
20
0
30
0
70
128
71
73
72
74
73
93
0
VERTEX
8
MCDCX_RoundTurretHousing
10
0
20
0
30
0
70
128
71
74
72
75
73
93
0
VERTEX
8
MCDCX_RoundTurretHousing
10
0
20
0
30
0
70
128
71
75
72
76
73
93
0
VERTEX
8
MCDCX_RoundTurretHousing
10
0
20
0
30
0
70
128
71
76
72
77
73
93
0
VERTEX
8
MCDCX_RoundTurretHousing
10
0
20
0
30
0
70
128
71
77
72
78
73
93
0
VERTEX
8
MCDCX_RoundTurretHousing
10
0
20
0
30
0
70
128
71
78
72
79
73
93
0
VERTEX
8
MCDCX_RoundTurretHousing
10
0
20
0
30
0
70
128
71
79
72
80
73
93
0
VERTEX
8
MCDCX_RoundTurretHousing
10
0
20
0
30
0
70
128
71
80
72
81
73
93
0
VERTEX
8
MCDCX_RoundTurretHousing
10
0
20
0
30
0
70
128
71
81
72
82
73
93
0
VERTEX
8
MCDCX_RoundTurretHousing
10
0
20
0
30
0
70
128
71
82
72
83
73
93
0
VERTEX
8
MCDCX_RoundTurretHousing
10
0
20
0
30
0
70
128
71
83
72
84
73
93
0
VERTEX
8
MCDCX_RoundTurretHousing
10
0
20
0
30
0
70
128
71
84
72
85
73
93
0
VERTEX
8
MCDCX_RoundTurretHousing
10
0
20
0
30
0
70
128
71
85
72
86
73
93
0
VERTEX
8
MCDCX_RoundTurretHousing
10
0
20
0
30
0
70
128
71
86
72
87
73
93
0
VERTEX
8
MCDCX_RoundTurretHousing
10
0
20
0
30
0
70
128
71
87
72
88
73
93
0
VERTEX
8
MCDCX_RoundTurretHousing
10
0
20
0
30
0
70
128
71
88
72
89
73
93
0
VERTEX
8
MCDCX_RoundTurretHousing
10
0
20
0
30
0
70
128
71
89
72
90
73
93
0
VERTEX
8
MCDCX_RoundTurretHousing
10
0
20
0
30
0
70
128
71
90
72
91
73
93
0
VERTEX
8
MCDCX_RoundTurretHousing
10
0
20
0
30
0
70
128
71
91
72
92
73
93
0
VERTEX
8
MCDCX_RoundTurretHousing
10
0
20
0
30
0
70
128
71
92
72
73
73
93
0
VERTEX
8
MCDCX_RoundTurretHousing
10
0
20
0
30
0
70
128
71
95
72
94
73
-98
0
VERTEX
8
MCDCX_RoundTurretHousing
10
0
20
0
30
0
70
128
71
98
72
99
73
-95
0
VERTEX
8
MCDCX_RoundTurretHousing
10
0
20
0
30
0
70
128
71
97
72
96
73
-100
0
VERTEX
8
MCDCX_RoundTurretHousing
10
0
20
0
30
0
70
128
71
100
72
101
73
-97
0
VERTEX
8
MCDCX_RoundTurretHousing
10
0
20
0
30
0
70
128
71
64
72
65
73
-99
0
VERTEX
8
MCDCX_RoundTurretHousing
10
0
20
0
30
0
70
128
71
99
72
98
73
-64
0
VERTEX
8
MCDCX_RoundTurretHousing
10
0
20
0
30
0
70
128
71
68
72
69
73
-101
0
VERTEX
8
MCDCX_RoundTurretHousing
10
0
20
0
30
0
70
128
71
101
72
100
73
-68
0
VERTEX
8
MCDCX_RoundTurretHousing
10
0
20
0
30
0
70
128
71
49
72
48
73
-94
0
VERTEX
8
MCDCX_RoundTurretHousing
10
0
20
0
30
0
70
128
71
94
72
95
73
-49
0
VERTEX
8
MCDCX_RoundTurretHousing
10
0
20
0
30
0
70
128
71
53
72
52
73
-96
0
VERTEX
8
MCDCX_RoundTurretHousing
10
0
20
0
30
0
70
128
71
96
72
97
73
-53
0
VERTEX
8
MCDCX_RoundTurretHousing
10
0
20
0
30
0
70
128
71
48
72
64
73
-98
0
VERTEX
8
MCDCX_RoundTurretHousing
10
0
20
0
30
0
70
128
71
98
72
94
73
-48
0
VERTEX
8
MCDCX_RoundTurretHousing
10
0
20
0
30
0
70
128
71
65
72
49
73
-95
0
VERTEX
8
MCDCX_RoundTurretHousing
10
0
20
0
30
0
70
128
71
95
72
99
73
-65
0
VERTEX
8
MCDCX_RoundTurretHousing
10
0
20
0
30
0
70
128
71
52
72
68
73
-100
0
VERTEX
8
MCDCX_RoundTurretHousing
10
0
20
0
30
0
70
128
71
100
72
96
73
-52
0
VERTEX
8
MCDCX_RoundTurretHousing
10
0
20
0
30
0
70
128
71
69
72
53
73
-97
0
VERTEX
8
MCDCX_RoundTurretHousing
10
0
20
0
30
0
70
128
71
97
72
101
73
-69
0
VERTEX
8
MCDCX_RoundTurretHousing
10
0
20
0
30
0
70
128
71
103
72
102
73
-106
0
VERTEX
8
MCDCX_RoundTurretHousing
10
0
20
0
30
0
70
128
71
106
72
107
73
-103
0
VERTEX
8
MCDCX_RoundTurretHousing
10
0
20
0
30
0
70
128
71
105
72
104
73
-108
0
VERTEX
8
MCDCX_RoundTurretHousing
10
0
20
0
30
0
70
128
71
108
72
109
73
-105
0
VERTEX
8
MCDCX_RoundTurretHousing
10
0
20
0
30
0
70
128
71
72
72
57
73
-107
0
VERTEX
8
MCDCX_RoundTurretHousing
10
0
20
0
30
0
70
128
71
107
72
106
73
-72
0
VERTEX
8
MCDCX_RoundTurretHousing
10
0
20
0
30
0
70
128
71
60
72
61
73
-109
0
VERTEX
8
MCDCX_RoundTurretHousing
10
0
20
0
30
0
70
128
71
109
72
108
73
-60
0
VERTEX
8
MCDCX_RoundTurretHousing
10
0
20
0
30
0
70
128
71
41
72
56
73
-102
0
VERTEX
8
MCDCX_RoundTurretHousing
10
0
20
0
30
0
70
128
71
102
72
103
73
-41
0
VERTEX
8
MCDCX_RoundTurretHousing
10
0
20
0
30
0
70
128
71
45
72
44
73
-104
0
VERTEX
8
MCDCX_RoundTurretHousing
10
0
20
0
30
0
70
128
71
104
72
105
73
-45
0
VERTEX
8
MCDCX_RoundTurretHousing
10
0
20
0
30
0
70
128
71
56
72
72
73
-106
0
VERTEX
8
MCDCX_RoundTurretHousing
10
0
20
0
30
0
70
128
71
106
72
102
73
-56
0
VERTEX
8
MCDCX_RoundTurretHousing
10
0
20
0
30
0
70
128
71
57
72
41
73
-103
0
VERTEX
8
MCDCX_RoundTurretHousing
10
0
20
0
30
0
70
128
71
103
72
107
73
-57
0
VERTEX
8
MCDCX_RoundTurretHousing
10
0
20
0
30
0
70
128
71
44
72
60
73
-108
0
VERTEX
8
MCDCX_RoundTurretHousing
10
0
20
0
30
0
70
128
71
108
72
104
73
-44
0
VERTEX
8
MCDCX_RoundTurretHousing
10
0
20
0
30
0
70
128
71
61
72
45
73
-105
0
VERTEX
8
MCDCX_RoundTurretHousing
10
0
20
0
30
0
70
128
71
105
72
109
73
-61
0
SEQEND
8
MCDCX_RoundTurretHousing
0
ENDSEC
0
EOF
