0
SECTION
2
HEADER
9
$ACADVER
1
AC1008
9
$UCSORG
10
0.0
20
0.0
30
0.0
9
$UCSXDIR
10
1.0
20
0.0
30
0.0
9
$TILEMODE
70
1
9
$UCSYDIR
10
0.0
20
1.0
30
0.0
9
$EXTMIN
10
-1863.833862
20
-2992.537354
30
-648.039307
9
$EXTMAX
10
3369.694336
20
2992.537354
30
499.582794
0
ENDSEC
0
SECTION
2
TABLES
0
TABLE
2
LTYPE
70
1
0
LTYPE
2
CONTINUOUS
70
64
3
Solid line
72
65
73
0
40
0.0
0
ENDTAB
0
TABLE
2
LAYER
70
1
0
LAYER
2
BSP
70
0
62
161
6
CONTINUOUS
0
ENDTAB
0
TABLE
2
STYLE
70
1
0
STYLE
2
STANDARD
70
0
40
0.0
41
1.0
50
0.0
71
0
42
0.2
3
txt
4

0
ENDTAB
0
TABLE
2
UCS
70
0
0
ENDTAB
0
ENDSEC
0
SECTION
2
ENTITIES
0
POLYLINE
8
BSP
66
1
70
64
71
123
72
226
62
161
0
VERTEX
8
BSP
10
-129.679016
20
-1421.455078
30
-648.039307
70
192
0
VERTEX
8
BSP
10
2002.929810
20
-1421.455078
30
-648.039307
70
192
0
VERTEX
8
BSP
10
-129.678894
20
-570.000000
30
-648.039246
70
192
0
VERTEX
8
BSP
10
-129.678894
20
570.000000
30
-648.039307
70
192
0
VERTEX
8
BSP
10
2002.929810
20
1421.455078
30
-648.039307
70
192
0
VERTEX
8
BSP
10
-129.679016
20
1421.455078
30
-648.039307
70
192
0
VERTEX
8
BSP
10
-129.679016
20
-1421.455078
30
-256.049133
70
192
0
VERTEX
8
BSP
10
2002.929810
20
-1421.455078
30
-256.049133
70
192
0
VERTEX
8
BSP
10
-129.678894
20
-570.000000
30
-256.049133
70
192
0
VERTEX
8
BSP
10
-129.678894
20
570.000000
30
-256.049133
70
192
0
VERTEX
8
BSP
10
2002.929810
20
1421.455078
30
-256.049133
70
192
0
VERTEX
8
BSP
10
-129.679016
20
1421.455078
30
-256.049133
70
192
0
VERTEX
8
BSP
10
-1051.109863
20
-570.000000
30
-648.039246
70
192
0
VERTEX
8
BSP
10
-1051.109863
20
570.000000
30
-648.039307
70
192
0
VERTEX
8
BSP
10
-1041.414063
20
-570.000000
30
-283.183563
70
192
0
VERTEX
8
BSP
10
-1051.109863
20
570.000000
30
-293.172150
70
192
0
VERTEX
8
BSP
10
-1051.042969
20
347.660889
30
-293.172150
70
192
0
VERTEX
8
BSP
10
-989.087341
20
347.936310
30
-281.599243
70
192
0
VERTEX
8
BSP
10
-1051.042969
20
-361.263031
30
-293.172119
70
192
0
VERTEX
8
BSP
10
-989.087341
20
-361.540833
30
-281.599213
70
192
0
VERTEX
8
BSP
10
-1046.620361
20
337.899475
30
-647.943970
70
192
0
VERTEX
8
BSP
10
-1046.620361
20
-350.792023
30
-647.943970
70
192
0
VERTEX
8
BSP
10
-181.071960
20
-514.285461
30
-257.697906
70
192
0
VERTEX
8
BSP
10
-181.071960
20
514.289978
30
-257.697876
70
192
0
VERTEX
8
BSP
10
-989.087585
20
514.289978
30
-281.568970
70
192
0
VERTEX
8
BSP
10
-989.087585
20
-514.285461
30
-281.567200
70
192
0
VERTEX
8
BSP
10
-1042.197754
20
337.898804
30
-292.958435
70
192
0
VERTEX
8
BSP
10
-981.490173
20
338.350342
30
-290.860504
70
192
0
VERTEX
8
BSP
10
-1042.197754
20
-350.785583
30
-292.958374
70
192
0
VERTEX
8
BSP
10
-981.490173
20
-351.264526
30
-290.860443
70
192
0
VERTEX
8
BSP
10
-193.101868
20
-500.000000
30
-267.633331
70
192
0
VERTEX
8
BSP
10
-193.101990
20
500.000000
30
-267.633301
70
192
0
VERTEX
8
BSP
10
-981.490417
20
500.000000
30
-290.831055
70
192
0
VERTEX
8
BSP
10
-981.490417
20
-500.000000
30
-290.829346
70
192
0
VERTEX
8
BSP
10
-1833.513062
20
337.898804
30
-315.323456
70
192
0
VERTEX
8
BSP
10
-1833.513062
20
-350.785583
30
-315.323425
70
192
0
VERTEX
8
BSP
10
-1863.833862
20
337.899475
30
-334.547211
70
192
0
VERTEX
8
BSP
10
-1863.833862
20
-350.792053
30
-334.547180
70
192
0
VERTEX
8
BSP
10
-1051.109863
20
-570.000000
30
-293.172119
70
192
0
VERTEX
8
BSP
10
-1041.414063
20
570.000000
30
-283.183594
70
192
0
VERTEX
8
BSP
10
-1041.347168
20
347.929047
30
-283.179077
70
192
0
VERTEX
8
BSP
10
-1041.347168
20
-361.547943
30
-283.179016
70
192
0
VERTEX
8
BSP
10
983.646484
20
-469.413177
30
-295.626556
70
192
0
VERTEX
8
BSP
10
2655.412598
20
-469.413422
30
-295.626495
70
192
0
VERTEX
8
BSP
10
983.646606
20
-1944.637817
30
-295.626678
70
192
0
VERTEX
8
BSP
10
1008.646484
20
-349.199738
30
290.493378
70
192
0
VERTEX
8
BSP
10
2655.412598
20
-322.501343
30
279.218781
70
192
0
VERTEX
8
BSP
10
983.646484
20
-1944.637939
30
279.218689
70
192
0
VERTEX
8
BSP
10
983.646484
20
-322.501190
30
279.218781
70
192
0
VERTEX
8
BSP
10
2655.412598
20
-349.199921
30
290.493378
70
192
0
VERTEX
8
BSP
10
1008.646606
20
-1919.637939
30
290.493286
70
192
0
VERTEX
8
BSP
10
2655.412598
20
-1919.638062
30
290.493317
70
192
0
VERTEX
8
BSP
10
2655.412598
20
-1919.638062
30
-295.619843
70
192
0
VERTEX
8
BSP
10
983.646484
20
469.413177
30
-295.626556
70
192
0
VERTEX
8
BSP
10
2655.412598
20
469.413422
30
-295.626495
70
192
0
VERTEX
8
BSP
10
983.646606
20
1944.637817
30
-295.626678
70
192
0
VERTEX
8
BSP
10
1008.646484
20
349.199738
30
290.493378
70
192
0
VERTEX
8
BSP
10
2655.412598
20
322.501343
30
279.218781
70
192
0
VERTEX
8
BSP
10
983.646484
20
1944.637939
30
279.218689
70
192
0
VERTEX
8
BSP
10
983.646484
20
322.501190
30
279.218781
70
192
0
VERTEX
8
BSP
10
2655.412598
20
349.199921
30
290.493378
70
192
0
VERTEX
8
BSP
10
1008.646606
20
1919.637939
30
290.493286
70
192
0
VERTEX
8
BSP
10
2655.412598
20
1919.638062
30
290.493317
70
192
0
VERTEX
8
BSP
10
2655.412598
20
1919.638062
30
-295.619843
70
192
0
VERTEX
8
BSP
10
-1822.742798
20
0.000000
30
-624.517944
70
192
0
VERTEX
8
BSP
10
-51.364441
20
0.000000
30
-624.517944
70
192
0
VERTEX
8
BSP
10
-1807.517456
20
0.000000
30
-320.217621
70
192
0
VERTEX
8
BSP
10
-51.364441
20
0.000000
30
-320.217560
70
192
0
VERTEX
8
BSP
10
-1822.742798
20
0.000000
30
-330.217560
70
192
0
VERTEX
8
BSP
10
-1822.743774
20
-2665.536865
30
-624.515930
70
192
0
VERTEX
8
BSP
10
-51.365295
20
-2665.537354
30
-624.515930
70
192
0
VERTEX
8
BSP
10
-1822.743774
20
-2665.536621
30
-330.215546
70
192
0
VERTEX
8
BSP
10
-51.365295
20
-2655.537109
30
-320.215576
70
192
0
VERTEX
8
BSP
10
-1807.518188
20
-2655.540039
30
-320.215607
70
192
0
VERTEX
8
BSP
10
-652.744202
20
-2665.537109
30
-330.215576
70
192
0
VERTEX
8
BSP
10
-652.743835
20
-2665.537354
30
-624.515930
70
192
0
VERTEX
8
BSP
10
-201.873718
20
-2992.537354
30
-624.515686
70
192
0
VERTEX
8
BSP
10
-208.459167
20
-2983.195313
30
-441.513275
70
192
0
VERTEX
8
BSP
10
-412.597961
20
-2992.537109
30
-455.080566
70
192
0
VERTEX
8
BSP
10
-412.597839
20
-2992.537354
30
-624.515686
70
192
0
VERTEX
8
BSP
10
-51.365295
20
-2665.537109
30
-330.800079
70
192
0
VERTEX
8
BSP
10
-62.250671
20
-2665.537109
30
-320.215546
70
192
0
VERTEX
8
BSP
10
-640.617004
20
-2655.540527
30
-320.215576
70
192
0
VERTEX
8
BSP
10
-201.873718
20
-2992.537354
30
-455.080536
70
192
0
VERTEX
8
BSP
10
-407.331482
20
-2983.195068
30
-441.513275
70
192
0
VERTEX
8
BSP
10
-1822.743774
20
2665.536865
30
-624.515930
70
192
0
VERTEX
8
BSP
10
-51.365295
20
2665.537354
30
-624.515930
70
192
0
VERTEX
8
BSP
10
-1822.743774
20
2665.536621
30
-330.215546
70
192
0
VERTEX
8
BSP
10
-51.365295
20
2655.537109
30
-320.215576
70
192
0
VERTEX
8
BSP
10
-1807.518188
20
2655.540039
30
-320.215607
70
192
0
VERTEX
8
BSP
10
-652.744202
20
2665.537109
30
-330.215576
70
192
0
VERTEX
8
BSP
10
-652.743835
20
2665.537354
30
-624.515930
70
192
0
VERTEX
8
BSP
10
-201.873718
20
2992.537354
30
-624.515686
70
192
0
VERTEX
8
BSP
10
-208.459167
20
2983.195313
30
-441.513275
70
192
0
VERTEX
8
BSP
10
-412.597961
20
2992.537109
30
-455.080566
70
192
0
VERTEX
8
BSP
10
-412.597839
20
2992.537354
30
-624.515686
70
192
0
VERTEX
8
BSP
10
-51.365295
20
2665.537109
30
-330.800079
70
192
0
VERTEX
8
BSP
10
-62.250671
20
2665.537109
30
-320.215546
70
192
0
VERTEX
8
BSP
10
-640.617004
20
2655.540527
30
-320.215576
70
192
0
VERTEX
8
BSP
10
-201.873718
20
2992.537354
30
-455.080536
70
192
0
VERTEX
8
BSP
10
-407.331482
20
2983.195068
30
-441.513275
70
192
0
VERTEX
8
BSP
10
1673.669556
20
-676.629211
30
245.491058
70
192
0
VERTEX
8
BSP
10
2569.736816
20
-1600.724609
30
245.491058
70
192
0
VERTEX
8
BSP
10
1832.253296
20
-542.725037
30
245.491058
70
192
0
VERTEX
8
BSP
10
3369.694336
20
-1153.440674
30
245.491074
70
192
0
VERTEX
8
BSP
10
1832.253296
20
542.725098
30
245.491074
70
192
0
VERTEX
8
BSP
10
3369.694336
20
1153.440796
30
245.491074
70
192
0
VERTEX
8
BSP
10
1673.669556
20
-676.629211
30
397.643951
70
192
0
VERTEX
8
BSP
10
2575.346680
20
-1589.841431
30
409.880951
70
192
0
VERTEX
8
BSP
10
1842.253296
20
-547.325684
30
499.582764
70
192
0
VERTEX
8
BSP
10
3369.694336
20
-1153.440918
30
499.582764
70
192
0
VERTEX
8
BSP
10
1842.253296
20
547.325684
30
499.582764
70
192
0
VERTEX
8
BSP
10
3369.694336
20
1153.440918
30
499.582794
70
192
0
VERTEX
8
BSP
10
1673.669556
20
676.629272
30
245.491074
70
192
0
VERTEX
8
BSP
10
2569.736816
20
1600.725098
30
245.491119
70
192
0
VERTEX
8
BSP
10
1673.669556
20
676.629150
30
397.643921
70
192
0
VERTEX
8
BSP
10
2575.346680
20
1589.841309
30
409.881012
70
192
0
VERTEX
8
BSP
10
1685.248413
20
-676.158508
30
412.936157
70
192
0
VERTEX
8
BSP
10
2569.736816
20
-1600.724731
30
397.643921
70
192
0
VERTEX
8
BSP
10
1832.253296
20
-542.725037
30
489.582764
70
192
0
VERTEX
8
BSP
10
1832.253296
20
542.725098
30
489.582764
70
192
0
VERTEX
8
BSP
10
1685.248413
20
676.158447
30
412.936157
70
192
0
VERTEX
8
BSP
10
2569.736816
20
1600.724609
30
397.643982
70
192
0
VERTEX
8
BSP
10
0
20
0
30
0
70
128
71
8
72
9
73
7
0
VERTEX
8
BSP
10
0
20
0
30
0
70
128
71
9
72
8
73
-11
0
VERTEX
8
BSP
10
0
20
0
30
0
70
128
71
11
72
10
73
-9
0
VERTEX
8
BSP
10
0
20
0
30
0
70
128
71
11
72
12
73
10
0
VERTEX
8
BSP
10
0
20
0
30
0
70
128
71
1
72
2
73
-8
0
VERTEX
8
BSP
10
0
20
0
30
0
70
128
71
8
72
7
73
-1
0
VERTEX
8
BSP
10
0
20
0
30
0
70
128
71
5
72
6
73
-12
0
VERTEX
8
BSP
10
0
20
0
30
0
70
128
71
12
72
11
73
-5
0
VERTEX
8
BSP
10
0
20
0
30
0
70
128
71
6
72
4
73
-10
0
VERTEX
8
BSP
10
0
20
0
30
0
70
128
71
10
72
12
73
-6
0
VERTEX
8
BSP
10
0
20
0
30
0
70
128
71
3
72
1
73
-7
0
VERTEX
8
BSP
10
0
20
0
30
0
70
128
71
7
72
9
73
-3
0
VERTEX
8
BSP
10
0
20
0
30
0
70
128
71
13
72
39
73
-19
0
VERTEX
8
BSP
10
0
20
0
30
0
70
128
71
19
72
22
73
-13
0
VERTEX
8
BSP
10
0
20
0
30
0
70
128
71
36
72
35
73
-37
0
VERTEX
8
BSP
10
0
20
0
30
0
70
128
71
37
72
38
73
-36
0
VERTEX
8
BSP
10
0
20
0
30
0
70
128
71
14
72
16
73
-40
0
VERTEX
8
BSP
10
0
20
0
30
0
70
128
71
-14
72
40
73
-10
0
VERTEX
8
BSP
10
0
20
0
30
0
70
128
71
-14
72
10
73
4
0
VERTEX
8
BSP
10
0
20
0
30
0
70
128
71
3
72
9
73
-15
0
VERTEX
8
BSP
10
0
20
0
30
0
70
128
71
-3
72
15
73
-39
0
VERTEX
8
BSP
10
0
20
0
30
0
70
128
71
-3
72
39
73
13
0
VERTEX
8
BSP
10
0
20
0
30
0
70
128
71
25
72
40
73
-41
0
VERTEX
8
BSP
10
0
20
0
30
0
70
128
71
41
72
18
73
-25
0
VERTEX
8
BSP
10
0
20
0
30
0
70
128
71
26
72
20
73
-42
0
VERTEX
8
BSP
10
0
20
0
30
0
70
128
71
42
72
15
73
-26
0
VERTEX
8
BSP
10
0
20
0
30
0
70
128
71
27
72
29
73
-30
0
VERTEX
8
BSP
10
0
20
0
30
0
70
128
71
30
72
28
73
-27
0
VERTEX
8
BSP
10
0
20
0
30
0
70
128
71
17
72
16
73
-14
0
VERTEX
8
BSP
10
0
20
0
30
0
70
128
71
14
72
21
73
-17
0
VERTEX
8
BSP
10
0
20
0
30
0
70
128
71
32
72
33
73
-28
0
VERTEX
8
BSP
10
0
20
0
30
0
70
128
71
30
72
34
73
-31
0
VERTEX
8
BSP
10
0
20
0
30
0
70
128
71
28
72
-30
73
-31
0
VERTEX
8
BSP
10
0
20
0
30
0
70
128
71
-32
72
-28
73
31
0
VERTEX
8
BSP
10
0
20
0
30
0
70
128
71
24
72
23
73
-9
0
VERTEX
8
BSP
10
0
20
0
30
0
70
128
71
9
72
10
73
-24
0
VERTEX
8
BSP
10
0
20
0
30
0
70
128
71
25
72
24
73
-10
0
VERTEX
8
BSP
10
0
20
0
30
0
70
128
71
10
72
40
73
-25
0
VERTEX
8
BSP
10
0
20
0
30
0
70
128
71
23
72
26
73
-15
0
VERTEX
8
BSP
10
0
20
0
30
0
70
128
71
15
72
9
73
-23
0
VERTEX
8
BSP
10
0
20
0
30
0
70
128
71
22
72
19
73
29
0
VERTEX
8
BSP
10
0
20
0
30
0
70
128
71
21
72
27
73
17
0
VERTEX
8
BSP
10
0
20
0
30
0
70
128
71
18
72
41
73
-27
0
VERTEX
8
BSP
10
0
20
0
30
0
70
128
71
27
72
28
73
-18
0
VERTEX
8
BSP
10
0
20
0
30
0
70
128
71
28
72
33
73
-25
0
VERTEX
8
BSP
10
0
20
0
30
0
70
128
71
25
72
18
73
-28
0
VERTEX
8
BSP
10
0
20
0
30
0
70
128
71
30
72
29
73
-42
0
VERTEX
8
BSP
10
0
20
0
30
0
70
128
71
42
72
20
73
-30
0
VERTEX
8
BSP
10
0
20
0
30
0
70
128
71
34
72
30
73
-20
0
VERTEX
8
BSP
10
0
20
0
30
0
70
128
71
20
72
26
73
-34
0
VERTEX
8
BSP
10
0
20
0
30
0
70
128
71
31
72
34
73
-26
0
VERTEX
8
BSP
10
0
20
0
30
0
70
128
71
26
72
23
73
-31
0
VERTEX
8
BSP
10
0
20
0
30
0
70
128
71
33
72
32
73
-24
0
VERTEX
8
BSP
10
0
20
0
30
0
70
128
71
24
72
25
73
-33
0
VERTEX
8
BSP
10
0
20
0
30
0
70
128
71
32
72
31
73
-23
0
VERTEX
8
BSP
10
0
20
0
30
0
70
128
71
23
72
24
73
-32
0
VERTEX
8
BSP
10
0
20
0
30
0
70
128
71
36
72
38
73
-22
0
VERTEX
8
BSP
10
0
20
0
30
0
70
128
71
22
72
29
73
-36
0
VERTEX
8
BSP
10
0
20
0
30
0
70
128
71
35
72
36
73
-29
0
VERTEX
8
BSP
10
0
20
0
30
0
70
128
71
29
72
27
73
-35
0
VERTEX
8
BSP
10
0
20
0
30
0
70
128
71
37
72
35
73
-27
0
VERTEX
8
BSP
10
0
20
0
30
0
70
128
71
27
72
21
73
-37
0
VERTEX
8
BSP
10
0
20
0
30
0
70
128
71
17
72
27
73
41
0
VERTEX
8
BSP
10
0
20
0
30
0
70
128
71
19
72
42
73
29
0
VERTEX
8
BSP
10
0
20
0
30
0
70
128
71
15
72
42
73
-19
0
VERTEX
8
BSP
10
0
20
0
30
0
70
128
71
19
72
39
73
-15
0
VERTEX
8
BSP
10
0
20
0
30
0
70
128
71
16
72
17
73
-41
0
VERTEX
8
BSP
10
0
20
0
30
0
70
128
71
41
72
40
73
-16
0
VERTEX
8
BSP
10
0
20
0
30
0
70
128
71
22
72
37
73
21
0
VERTEX
8
BSP
10
0
20
0
30
0
70
128
71
37
72
22
73
38
0
VERTEX
8
BSP
10
0
20
0
30
0
70
128
71
4
72
21
73
14
0
VERTEX
8
BSP
10
0
20
0
30
0
70
128
71
22
72
3
73
13
0
VERTEX
8
BSP
10
0
20
0
30
0
70
128
71
4
72
3
73
22
0
VERTEX
8
BSP
10
0
20
0
30
0
70
128
71
22
72
21
73
4
0
VERTEX
8
BSP
10
0
20
0
30
0
70
128
71
3
72
2
73
1
0
VERTEX
8
BSP
10
0
20
0
30
0
70
128
71
5
72
4
73
6
0
VERTEX
8
BSP
10
0
20
0
30
0
70
128
71
5
72
2
73
3
0
VERTEX
8
BSP
10
0
20
0
30
0
70
128
71
3
72
4
73
5
0
VERTEX
8
BSP
10
0
20
0
30
0
70
128
71
2
72
5
73
11
0
VERTEX
8
BSP
10
0
20
0
30
0
70
128
71
8
72
2
73
11
0
VERTEX
8
BSP
10
0
20
0
30
0
70
128
71
46
72
51
73
-52
0
VERTEX
8
BSP
10
0
20
0
30
0
70
128
71
52
72
50
73
-46
0
VERTEX
8
BSP
10
0
20
0
30
0
70
128
71
43
72
49
73
-47
0
VERTEX
8
BSP
10
0
20
0
30
0
70
128
71
47
72
44
73
-43
0
VERTEX
8
BSP
10
0
20
0
30
0
70
128
71
45
72
48
73
-49
0
VERTEX
8
BSP
10
0
20
0
30
0
70
128
71
49
72
43
73
-45
0
VERTEX
8
BSP
10
0
20
0
30
0
70
128
71
50
72
47
73
-49
0
VERTEX
8
BSP
10
0
20
0
30
0
70
128
71
49
72
46
73
-50
0
VERTEX
8
BSP
10
0
20
0
30
0
70
128
71
48
72
51
73
-46
0
VERTEX
8
BSP
10
0
20
0
30
0
70
128
71
46
72
49
73
-48
0
VERTEX
8
BSP
10
0
20
0
30
0
70
128
71
45
72
52
73
48
0
VERTEX
8
BSP
10
0
20
0
30
0
70
128
71
48
72
52
73
51
0
VERTEX
8
BSP
10
0
20
0
30
0
70
128
71
52
72
45
73
53
0
VERTEX
8
BSP
10
0
20
0
30
0
70
128
71
47
72
50
73
52
0
VERTEX
8
BSP
10
0
20
0
30
0
70
128
71
52
72
53
73
47
0
VERTEX
8
BSP
10
0
20
0
30
0
70
128
71
47
72
53
73
44
0
VERTEX
8
BSP
10
0
20
0
30
0
70
128
71
45
72
44
73
53
0
VERTEX
8
BSP
10
0
20
0
30
0
70
128
71
45
72
43
73
44
0
VERTEX
8
BSP
10
0
20
0
30
0
70
128
71
-57
72
63
73
62
0
VERTEX
8
BSP
10
0
20
0
30
0
70
128
71
-63
72
57
73
61
0
VERTEX
8
BSP
10
0
20
0
30
0
70
128
71
-54
72
58
73
60
0
VERTEX
8
BSP
10
0
20
0
30
0
70
128
71
-58
72
54
73
55
0
VERTEX
8
BSP
10
0
20
0
30
0
70
128
71
-56
72
60
73
59
0
VERTEX
8
BSP
10
0
20
0
30
0
70
128
71
-60
72
56
73
54
0
VERTEX
8
BSP
10
0
20
0
30
0
70
128
71
-61
72
60
73
58
0
VERTEX
8
BSP
10
0
20
0
30
0
70
128
71
-60
72
61
73
57
0
VERTEX
8
BSP
10
0
20
0
30
0
70
128
71
-59
72
57
73
62
0
VERTEX
8
BSP
10
0
20
0
30
0
70
128
71
-57
72
59
73
60
0
VERTEX
8
BSP
10
0
20
0
30
0
70
128
71
56
72
59
73
63
0
VERTEX
8
BSP
10
0
20
0
30
0
70
128
71
59
72
62
73
63
0
VERTEX
8
BSP
10
0
20
0
30
0
70
128
71
63
72
64
73
56
0
VERTEX
8
BSP
10
0
20
0
30
0
70
128
71
58
72
63
73
61
0
VERTEX
8
BSP
10
0
20
0
30
0
70
128
71
63
72
58
73
64
0
VERTEX
8
BSP
10
0
20
0
30
0
70
128
71
58
72
55
73
64
0
VERTEX
8
BSP
10
0
20
0
30
0
70
128
71
56
72
64
73
55
0
VERTEX
8
BSP
10
0
20
0
30
0
70
128
71
56
72
55
73
54
0
VERTEX
8
BSP
10
0
20
0
30
0
70
128
71
-68
72
83
73
-82
0
VERTEX
8
BSP
10
0
20
0
30
0
70
128
71
-83
72
68
73
-67
0
VERTEX
8
BSP
10
0
20
0
30
0
70
128
71
71
72
-66
73
81
0
VERTEX
8
BSP
10
0
20
0
30
0
70
128
71
68
72
-73
73
66
0
VERTEX
8
BSP
10
0
20
0
30
0
70
128
71
-76
72
72
73
70
0
VERTEX
8
BSP
10
0
20
0
30
0
70
128
71
84
72
-79
73
77
0
VERTEX
8
BSP
10
0
20
0
30
0
70
128
71
65
72
-70
73
69
0
VERTEX
8
BSP
10
0
20
0
30
0
70
128
71
72
72
-69
73
70
0
VERTEX
8
BSP
10
0
20
0
30
0
70
128
71
67
72
69
73
-72
0
VERTEX
8
BSP
10
0
20
0
30
0
70
128
71
76
72
75
73
-72
0
VERTEX
8
BSP
10
0
20
0
30
0
70
128
71
79
72
80
73
-77
0
VERTEX
8
BSP
10
0
20
0
30
0
70
128
71
74
72
-83
73
67
0
VERTEX
8
BSP
10
0
20
0
30
0
70
128
71
82
72
-83
73
78
0
VERTEX
8
BSP
10
0
20
0
30
0
70
128
71
85
72
-78
73
83
0
VERTEX
8
BSP
10
0
20
0
30
0
70
128
71
71
72
-81
73
77
0
VERTEX
8
BSP
10
0
20
0
30
0
70
128
71
84
72
-77
73
81
0
VERTEX
8
BSP
10
0
20
0
30
0
70
128
71
75
72
-76
73
79
0
VERTEX
8
BSP
10
0
20
0
30
0
70
128
71
80
72
-79
73
76
0
VERTEX
8
BSP
10
0
20
0
30
0
70
128
71
76
72
-71
73
80
0
VERTEX
8
BSP
10
0
20
0
30
0
70
128
71
77
72
-80
73
71
0
VERTEX
8
BSP
10
0
20
0
30
0
70
128
71
81
72
73
73
82
0
VERTEX
8
BSP
10
0
20
0
30
0
70
128
71
-68
72
82
73
73
0
VERTEX
8
BSP
10
0
20
0
30
0
70
128
71
72
72
74
73
-67
0
VERTEX
8
BSP
10
0
20
0
30
0
70
128
71
-81
72
-66
73
73
0
VERTEX
8
BSP
10
0
20
0
30
0
70
128
71
84
72
78
73
-85
0
VERTEX
8
BSP
10
0
20
0
30
0
70
128
71
85
72
79
73
-84
0
VERTEX
8
BSP
10
0
20
0
30
0
70
128
71
74
72
72
73
-75
0
VERTEX
8
BSP
10
0
20
0
30
0
70
128
71
75
72
83
73
-74
0
VERTEX
8
BSP
10
0
20
0
30
0
70
128
71
81
72
82
73
-78
0
VERTEX
8
BSP
10
0
20
0
30
0
70
128
71
78
72
84
73
-81
0
VERTEX
8
BSP
10
0
20
0
30
0
70
128
71
83
72
75
73
-79
0
VERTEX
8
BSP
10
0
20
0
30
0
70
128
71
79
72
85
73
-83
0
VERTEX
8
BSP
10
0
20
0
30
0
70
128
71
-68
72
98
73
-99
0
VERTEX
8
BSP
10
0
20
0
30
0
70
128
71
-99
72
67
73
-68
0
VERTEX
8
BSP
10
0
20
0
30
0
70
128
71
87
72
-97
73
66
0
VERTEX
8
BSP
10
0
20
0
30
0
70
128
71
68
72
-66
73
89
0
VERTEX
8
BSP
10
0
20
0
30
0
70
128
71
92
72
86
73
-88
0
VERTEX
8
BSP
10
0
20
0
30
0
70
128
71
100
72
-93
73
95
0
VERTEX
8
BSP
10
0
20
0
30
0
70
128
71
65
72
-69
73
86
0
VERTEX
8
BSP
10
0
20
0
30
0
70
128
71
88
72
-86
73
69
0
VERTEX
8
BSP
10
0
20
0
30
0
70
128
71
-67
72
88
73
69
0
VERTEX
8
BSP
10
0
20
0
30
0
70
128
71
-92
72
88
73
91
0
VERTEX
8
BSP
10
0
20
0
30
0
70
128
71
-95
72
93
73
96
0
VERTEX
8
BSP
10
0
20
0
30
0
70
128
71
90
72
-67
73
99
0
VERTEX
8
BSP
10
0
20
0
30
0
70
128
71
98
72
-94
73
99
0
VERTEX
8
BSP
10
0
20
0
30
0
70
128
71
101
72
-99
73
94
0
VERTEX
8
BSP
10
0
20
0
30
0
70
128
71
87
72
-93
73
97
0
VERTEX
8
BSP
10
0
20
0
30
0
70
128
71
100
72
-97
73
93
0
VERTEX
8
BSP
10
0
20
0
30
0
70
128
71
91
72
-95
73
92
0
VERTEX
8
BSP
10
0
20
0
30
0
70
128
71
96
72
-92
73
95
0
VERTEX
8
BSP
10
0
20
0
30
0
70
128
71
92
72
-96
73
87
0
VERTEX
8
BSP
10
0
20
0
30
0
70
128
71
93
72
-87
73
96
0
VERTEX
8
BSP
10
0
20
0
30
0
70
128
71
97
72
98
73
89
0
VERTEX
8
BSP
10
0
20
0
30
0
70
128
71
68
72
89
73
-98
0
VERTEX
8
BSP
10
0
20
0
30
0
70
128
71
-88
72
67
73
90
0
VERTEX
8
BSP
10
0
20
0
30
0
70
128
71
97
72
-89
73
-66
0
VERTEX
8
BSP
10
0
20
0
30
0
70
128
71
-100
72
101
73
94
0
VERTEX
8
BSP
10
0
20
0
30
0
70
128
71
-101
72
100
73
95
0
VERTEX
8
BSP
10
0
20
0
30
0
70
128
71
-90
72
91
73
88
0
VERTEX
8
BSP
10
0
20
0
30
0
70
128
71
-91
72
90
73
99
0
VERTEX
8
BSP
10
0
20
0
30
0
70
128
71
-97
72
94
73
98
0
VERTEX
8
BSP
10
0
20
0
30
0
70
128
71
-94
72
97
73
100
0
VERTEX
8
BSP
10
0
20
0
30
0
70
128
71
-99
72
95
73
91
0
VERTEX
8
BSP
10
0
20
0
30
0
70
128
71
-95
72
99
73
101
0
VERTEX
8
BSP
10
0
20
0
30
0
70
128
71
110
72
109
73
111
0
VERTEX
8
BSP
10
0
20
0
30
0
70
128
71
109
72
110
73
118
0
VERTEX
8
BSP
10
0
20
0
30
0
70
128
71
113
72
112
73
-110
0
VERTEX
8
BSP
10
0
20
0
30
0
70
128
71
110
72
111
73
-113
0
VERTEX
8
BSP
10
0
20
0
30
0
70
128
71
119
72
108
73
-102
0
VERTEX
8
BSP
10
0
20
0
30
0
70
128
71
102
72
103
73
-119
0
VERTEX
8
BSP
10
0
20
0
30
0
70
128
71
103
72
105
73
-111
0
VERTEX
8
BSP
10
0
20
0
30
0
70
128
71
111
72
109
73
-119
0
VERTEX
8
BSP
10
0
20
0
30
0
70
128
71
-103
72
-111
73
119
0
VERTEX
8
BSP
10
0
20
0
30
0
70
128
71
113
72
111
73
-105
0
VERTEX
8
BSP
10
0
20
0
30
0
70
128
71
105
72
107
73
-113
0
VERTEX
8
BSP
10
0
20
0
30
0
70
128
71
120
72
121
73
-106
0
VERTEX
8
BSP
10
0
20
0
30
0
70
128
71
106
72
104
73
-120
0
VERTEX
8
BSP
10
0
20
0
30
0
70
128
71
108
72
120
73
-104
0
VERTEX
8
BSP
10
0
20
0
30
0
70
128
71
104
72
102
73
-108
0
VERTEX
8
BSP
10
0
20
0
30
0
70
128
71
117
72
122
73
112
0
VERTEX
8
BSP
10
0
20
0
30
0
70
128
71
112
72
113
73
117
0
VERTEX
8
BSP
10
0
20
0
30
0
70
128
71
114
72
116
73
-123
0
VERTEX
8
BSP
10
0
20
0
30
0
70
128
71
123
72
115
73
-114
0
VERTEX
8
BSP
10
0
20
0
30
0
70
128
71
115
72
123
73
-117
0
VERTEX
8
BSP
10
0
20
0
30
0
70
128
71
-115
72
117
73
-113
0
VERTEX
8
BSP
10
0
20
0
30
0
70
128
71
107
72
-115
73
113
0
VERTEX
8
BSP
10
0
20
0
30
0
70
128
71
106
72
121
73
-116
0
VERTEX
8
BSP
10
0
20
0
30
0
70
128
71
116
72
114
73
-106
0
VERTEX
8
BSP
10
0
20
0
30
0
70
128
71
118
72
110
73
-120
0
VERTEX
8
BSP
10
0
20
0
30
0
70
128
71
120
72
108
73
-118
0
VERTEX
8
BSP
10
0
20
0
30
0
70
128
71
108
72
119
73
-109
0
VERTEX
8
BSP
10
0
20
0
30
0
70
128
71
109
72
118
73
-108
0
VERTEX
8
BSP
10
0
20
0
30
0
70
128
71
110
72
112
73
-121
0
VERTEX
8
BSP
10
0
20
0
30
0
70
128
71
121
72
120
73
-110
0
VERTEX
8
BSP
10
0
20
0
30
0
70
128
71
122
72
117
73
-123
0
VERTEX
8
BSP
10
0
20
0
30
0
70
128
71
123
72
116
73
-122
0
VERTEX
8
BSP
10
0
20
0
30
0
70
128
71
112
72
122
73
-116
0
VERTEX
8
BSP
10
0
20
0
30
0
70
128
71
116
72
121
73
-112
0
VERTEX
8
BSP
10
0
20
0
30
0
70
128
71
105
72
115
73
107
0
VERTEX
8
BSP
10
0
20
0
30
0
70
128
71
103
72
115
73
105
0
VERTEX
8
BSP
10
0
20
0
30
0
70
128
71
104
72
103
73
102
0
VERTEX
8
BSP
10
0
20
0
30
0
70
128
71
114
72
115
73
106
0
VERTEX
8
BSP
10
0
20
0
30
0
70
128
71
115
72
103
73
104
0
VERTEX
8
BSP
10
0
20
0
30
0
70
128
71
104
72
106
73
115
0
VERTEX
8
BSP
10
0
20
0
30
0
70
128
71
65
72
71
73
76
0
VERTEX
8
BSP
10
0
20
0
30
0
70
128
71
76
72
70
73
65
0
VERTEX
8
BSP
10
0
20
0
30
0
70
128
71
65
72
66
73
71
0
VERTEX
8
BSP
10
0
20
0
30
0
70
128
71
65
72
87
73
66
0
VERTEX
8
BSP
10
0
20
0
30
0
70
128
71
65
72
92
73
87
0
VERTEX
8
BSP
10
0
20
0
30
0
70
128
71
65
72
86
73
92
0
SEQEND
8
BSP
0
ENDSEC
0
EOF
